<?xml version="1.0" encoding="UTF-8"?>
<svg width="60px" height="62px" viewBox="0 0 60 62" version="1.1" xmlns="http://www.w3.org/2000/svg" xmlns:xlink="http://www.w3.org/1999/xlink">
    <!-- Generator: Sketch 61.2 (89653) - https://sketch.com -->
    <title>Combined Shape</title>
    <desc>Created with Sketch.</desc>
    <g id="coming-soon" stroke="none" stroke-width="1" fill="none" fill-rule="evenodd">
        <g id="screen2" transform="translate(-262.000000, -666.000000)" fill="#61ED58" fill-rule="nonzero">
            <g id="icons" transform="translate(262.000000, 666.000000)">
                <g id="game-item">
                    <path d="M1.8104773,38.8759023 C2.82887081,41.2358556 4.77997669,43.0682189 7.19906869,43.9366705 C9.61816069,44.8051223 12.2891735,44.6318976 14.5760187,43.4589057 C14.5131549,43.7965076 14.4819558,44.1392317 14.4828872,44.4828872 C14.4810244,46.0987195 15.1124564,47.6512224 16.2412108,48.8069849 C12.7343423,52.1173457 14.4414435,61.0346916 5.1725262,61.0346916 C1.03469156,61.0346916 2.66453526e-14,60 2.66453526e-14,49.6554134 C0.167171159,46.0023284 0.774854483,42.3832363 1.8104773,38.8759023 Z M58.1899884,38.8759023 C59.2251455,42.3832363 59.8332946,46.0023284 60,49.6554134 C60,60 58.9657742,61.0346916 54.8279395,61.0346916 C45.5585565,61.0346916 47.2656578,52.1173457 43.7587893,48.8069849 C44.8880093,47.6512224 45.5194412,46.0987195 45.5175786,44.4828872 C45.5180443,44.1392317 45.4868452,43.7965076 45.424447,43.4589057 C46.733411,44.1317812 48.1834691,44.4824215 49.6554134,44.4828872 C53.363446,44.4819558 56.7166474,42.278929 58.1899884,38.8759023 Z M20.6896392,40.3450524 C22.9750874,40.3450524 24.8274738,42.197439 24.8274738,44.4828872 C24.8274738,46.7683353 22.9750874,48.6207218 20.6896392,48.6207218 C18.404191,48.6207218 16.5518044,46.7683353 16.5518044,44.4828872 C16.5518044,42.197439 18.404191,40.3450524 20.6896392,40.3450524 Z M39.310361,40.3450524 C41.5958092,40.3450524 43.4481956,42.197439 43.4481956,44.4828872 C43.4481956,46.7683353 41.5958092,48.6207218 39.310361,48.6207218 C37.0253784,48.6207218 35.1725262,46.7683353 35.1725262,44.4828872 C35.1725262,42.197439 37.0253784,40.3450524 39.310361,40.3450524 Z M48.6207218,23.793248 C50.038184,23.793248 51.4034925,24.7757859 52.6658906,26.3692666 C51.6982539,26.0311992 50.680326,25.8593714 49.6554134,25.8621654 C44.5168801,25.8700815 40.3529685,30.033993 40.3450524,35.1725262 L40.3450524,35.1725262 L40.3450524,35.2344586 C40.3431898,35.2726426 40.346915,35.3112923 40.3552969,35.3485449 C40.3660071,36.4284052 40.572759,37.4975554 40.9657743,38.5033761 C39.0975553,37.9827707 37.0933644,38.3664727 35.5492434,39.5403958 C34.005588,40.714319 33.1008149,42.5434226 33.1036088,44.4828872 C33.0998836,45.5739233 33.3890571,46.6458673 33.9413271,47.586496 L33.9413271,47.586496 L26.0586729,47.586496 C26.610943,46.6458673 26.9005821,45.5739233 26.8968568,44.4828872 C26.8968568,41.0547148 24.1178114,38.2761351 20.6896392,38.2761351 C20.1299185,38.2724099 19.5725262,38.3492434 19.0346915,38.5033761 C19.4467986,37.4416765 19.657276,36.3119907 19.6554132,35.1725262 L19.6554132,35.1725262 L19.6554132,35.1310827 C19.6256111,30.0083819 15.4677532,25.8686845 10.3450524,25.8621654 C9.32013974,25.8593714 8.30221185,26.0311992 7.33457512,26.3692666 C8.59650755,24.7757859 9.96228167,23.793248 11.3792782,23.793248 C15.3313155,23.793248 14.5657742,25.6861467 21.7243306,25.8519208 L21.7243306,25.8519208 L21.7243306,33.1036088 C21.7294529,34.8153668 23.1157159,36.2020955 24.8274738,36.2072178 L24.8274738,36.2072178 L35.1725262,36.2072178 C36.8842841,36.2020955 38.2710129,34.8153668 38.2761351,33.1036088 L38.2761351,33.1036088 L38.2761351,25.8519208 C45.4346916,25.6861467 44.6691502,23.793248 48.6207218,23.793248 Z M39.310361,43.4481956 C38.7389989,43.4481956 38.2761351,43.9115251 38.2761351,44.4828872 C38.2761351,45.0542491 38.7389989,45.5175786 39.310361,45.5175786 C39.881723,45.5175786 40.3450524,45.0542491 40.3450524,44.4828872 C40.3450524,43.9115251 39.881723,43.4481956 39.310361,43.4481956 Z M20.6896392,43.4481956 C20.1182771,43.4481956 19.6554132,43.9115251 19.6554132,44.4828872 C19.6554132,45.0542491 20.1182771,45.5175786 20.6896392,45.5175786 C21.2610011,45.5175786 21.7243306,45.0542491 21.7243306,44.4828872 C21.7243306,43.9115251 21.2610011,43.4481956 20.6896392,43.4481956 Z M49.6554134,40.3450524 C50.2267754,40.3450524 50.6896392,40.8079163 50.6896392,41.3792783 C50.6896392,41.9506403 50.2267754,42.4139698 49.6554134,42.4139698 C49.0840513,42.4139698 48.6207218,41.9506403 48.6207218,41.3792783 C48.6207218,40.8079163 49.0840513,40.3450524 49.6554134,40.3450524 Z M11.3792782,28.0139698 C14.5545984,28.4684517 17.0491269,30.9629802 17.5036088,34.1378348 L17.5036088,34.1378348 L14.4828872,34.1378348 C13.9115251,34.1378348 13.4481956,34.6011641 13.4481956,35.1725262 C13.4481956,35.7438883 13.9115251,36.2072178 14.4828872,36.2072178 L14.4828872,36.2072178 L17.5036088,36.2072178 C17.0491269,39.3820722 14.5545984,41.8766007 11.3792782,42.3310826 L11.3792782,42.3310826 L11.3792782,39.310361 C11.3792782,38.7389989 10.9164145,38.2761351 10.3450524,38.2761351 C9.77369032,38.2761351 9.31036083,38.7389989 9.31036083,39.310361 L9.31036083,39.310361 L9.31036083,42.3310826 C6.13504078,41.8766007 3.64051217,39.3820722 3.18603021,36.2072178 L3.18603021,36.2072178 L6.20675201,36.2072178 C6.77811409,36.2072178 7.24144358,35.7438883 7.24144358,35.1725262 C7.24144358,34.6011641 6.77811409,34.1378348 6.20675201,34.1378348 L6.20675201,34.1378348 L3.18603021,34.1378348 C3.64051217,30.9629802 6.13504078,28.4684517 9.31036083,28.0139698 L9.31036083,28.0139698 L9.31036083,32.0689174 C9.31036083,32.6402795 9.77369032,33.1036088 10.3450524,33.1036088 C10.9164145,33.1036088 11.3792782,32.6402795 11.3792782,32.0689174 L11.3792782,32.0689174 Z M52.7380676,28.6244471 C54.2616997,29.3406286 55.4873109,30.5662398 56.2034925,32.0898719 C56.1001165,32.0796275 55.9762515,32.0689174 55.8621654,32.0689174 C54.1480792,32.0689174 52.7590222,33.4584401 52.7590222,35.1725262 C52.7590222,36.8866124 54.1480792,38.2761351 55.8621654,38.2761351 C55.9762515,38.2761351 56.089872,38.265425 56.2034925,38.2551805 C55.4873109,39.7788126 54.2616997,41.0044238 52.7380676,41.7206054 C52.748312,41.6172293 52.7590222,41.4933644 52.7590222,41.3792783 C52.7590222,39.6656578 51.3694995,38.2761351 49.6554134,38.2761351 C47.9413271,38.2761351 46.5518044,39.6656578 46.5518044,41.3792783 C46.5518044,41.4933644 46.5620489,41.6172293 46.5727591,41.7206054 C45.049127,41.0044238 43.8235158,39.7788126 43.1068685,38.2551805 C43.2107102,38.265425 43.3345751,38.2761351 43.4481956,38.2761351 C45.1622817,38.2761351 46.5518044,36.8866124 46.5518044,35.1725262 C46.5518044,33.4584401 45.1622817,32.0689174 43.4481956,32.0689174 C43.3345751,32.0689174 43.2209546,32.0796275 43.1068685,32.0898719 C43.8235158,30.5662398 45.049127,29.3406286 46.5727591,28.6244471 C46.5620489,28.7380676 46.5518044,28.8516881 46.5518044,28.9657742 C46.5569267,30.677532 47.9436555,32.0637951 49.6554134,32.0689174 C51.3671712,32.0637951 52.7538999,30.677532 52.7590222,28.9657742 C52.7590222,28.8516881 52.748312,28.727823 52.7380676,28.6244471 Z M43.5008149,34.17695 C44.036787,34.2039581 44.4633295,34.6360885 44.4828872,35.1725262 C44.4912689,35.7438883 44.0353901,36.2137369 43.464028,36.2225844 C42.8926659,36.2309663 42.4223517,35.7750874 42.4139698,35.2037253 L42.4139698,35.2037253 L42.4139698,35.1725262 C42.4121071,35.1376018 42.4158324,35.1026776 42.4242142,35.0691502 C42.4973225,34.537369 42.9648429,34.1499418 43.5008149,34.17695 Z M55.8621654,34.1378348 C56.4335274,34.1378348 56.8968568,34.6011641 56.8968568,35.1725262 C56.8968568,35.7438883 56.4335274,36.2072178 55.8621654,36.2072178 C55.2908033,36.2072178 54.8279395,35.7438883 54.8279395,35.1725262 C54.8279395,34.6011641 55.2908033,34.1378348 55.8621654,34.1378348 Z M30,-2.84217094e-14 C30.5713621,-2.84217094e-14 31.0346916,0.463329483 31.0346916,1.03469156 L31.0346916,1.03469156 L31.0346916,1.5515716 C31.0346916,3.55157163 32.6556461,5.1725262 34.6551805,5.1725262 L34.6551805,5.1725262 L35.689872,5.1725262 C38.8321304,5.1725262 41.3792783,7.71967399 41.3792783,10.8619326 C41.3792783,14.0046566 38.8321304,16.5518044 35.689872,16.5518044 L35.689872,16.5518044 L34.6551805,16.5518044 C32.6556461,16.5518044 31.0346916,18.172759 31.0346916,20.1722934 L31.0346916,20.1722934 L31.0346916,25.8621654 L36.2072178,25.8621654 L36.2072178,33.1036088 C36.2072178,33.6749709 35.7438883,34.1378348 35.1725262,34.1378348 L35.1725262,34.1378348 L24.8274738,34.1378348 C24.2561117,34.1378348 23.793248,33.6749709 23.793248,33.1036088 L23.793248,33.1036088 L23.793248,25.8621654 L28.9657742,25.8621654 L28.9657742,20.1722934 C28.9690338,17.0314319 31.514319,14.4861467 34.6551805,14.4828872 L34.6551805,14.4828872 L35.689872,14.4828872 C37.6894063,14.4828872 39.310361,12.8619325 39.310361,10.8619326 C39.310361,8.86239815 37.6894063,7.24144358 35.689872,7.24144358 L35.689872,7.24144358 L34.6551805,7.24144358 C31.514319,7.23818394 28.9690338,4.69243304 28.9657742,1.5515716 L28.9657742,1.5515716 L28.9657742,1.03469156 C28.9657742,0.463329483 29.428638,-2.84217094e-14 30,-2.84217094e-14 Z M49.6554134,27.9310827 C50.2267754,27.9310827 50.6896392,28.3944121 50.6896392,28.9657742 C50.6896392,29.5371363 50.2267754,30 49.6554134,30 C49.0840513,30 48.6207218,29.5371363 48.6207218,28.9657742 C48.6207218,28.3944121 49.0840513,27.9310827 49.6554134,27.9310827 Z M3.56740393,19.8314319 C3.87566942,19.6274739 4.26961581,19.6037253 4.60023286,19.7690338 L4.60023286,19.7690338 L6.66915012,20.8037253 C7.18044238,21.0589057 7.38812568,21.6805588 7.13294535,22.191851 C6.87729916,22.7031432 6.25564605,22.9108265 5.74435391,22.6551805 L5.74435391,22.6551805 L3.67543653,21.6209546 C3.34481959,21.4556461 3.1273574,21.1264261 3.10500582,20.7571595 C3.08265425,20.3883586 3.25867294,20.0353899 3.56740393,19.8314319 Z M55.3988359,19.7639116 C55.9101281,19.5082655 56.5317811,19.7159488 56.7869617,20.2272411 C57.0426078,20.7385332 56.8349244,21.3601863 56.3236322,21.6153668 L56.3236322,21.6153668 L54.2547148,22.6500582 C54.1112923,22.7213038 53.9534342,22.7585584 53.793248,22.7585584 C53.3126892,22.7594878 52.8949942,22.4298021 52.7846334,21.9622817 C52.6738068,21.4947614 52.8996507,21.0128056 53.3299186,20.7981374 L53.3299186,20.7981374 Z M10.3450524,16.5518044 C10.9164145,16.5518044 11.3792782,17.0151339 11.3792782,17.586496 L11.3792782,17.586496 L11.3792782,19.6554132 C11.3792782,20.2267753 10.9164145,20.6896392 10.3450524,20.6896392 C9.77369032,20.6896392 9.31036083,20.2267753 9.31036083,19.6554132 L9.31036083,19.6554132 L9.31036083,17.586496 C9.31036083,17.0151339 9.77369032,16.5518044 10.3450524,16.5518044 Z M49.6554134,16.5518044 C50.2267754,16.5518044 50.6896392,17.0151339 50.6896392,17.586496 L50.6896392,17.586496 L50.6896392,19.6554132 C50.6896392,20.2267753 50.2267754,20.6896392 49.6554134,20.6896392 C49.0840513,20.6896392 48.6207218,20.2267753 48.6207218,19.6554132 L48.6207218,19.6554132 L48.6207218,17.586496 C48.6207218,17.0151339 49.0840513,16.5518044 49.6554134,16.5518044 Z" id="Combined-Shape"></path>
                </g>
            </g>
        </g>
    </g>
</svg>