<?xml version="1.0" encoding="UTF-8"?>
<svg width="60px" height="60px" viewBox="0 0 60 60" version="1.1" xmlns="http://www.w3.org/2000/svg" xmlns:xlink="http://www.w3.org/1999/xlink">
    <!-- Generator: Sketch 61.2 (89653) - https://sketch.com -->
    <title>Combined Shape</title>
    <desc>Created with Sketch.</desc>
    <g id="coming-soon" stroke="none" stroke-width="1" fill="none" fill-rule="evenodd">
        <g id="screen2" transform="translate(-604.000000, -668.000000)" fill="#61ED58" fill-rule="nonzero">
            <g id="icons" transform="translate(262.000000, 666.000000)">
                <g id="money-item" transform="translate(342.000000, 2.000000)">
                    <path d="M35.2357956,-7.10542736e-15 C35.4879826,-7.10542736e-15 35.7063005,0.175752699 35.7593924,0.422447354 L35.7593924,0.422447354 L36.4271614,3.49125536 C36.4308229,3.53336267 36.4376883,3.57547022 36.4472997,3.61666222 L36.4472997,3.61666222 L37.7530879,9.53412939 C38.9590995,15.0598144 38.25975,20.830821 35.769004,25.908428 L35.769004,25.908428 L35.4628096,26.543701 C31.4044772,34.7349696 31.7692556,44.4242556 36.432196,52.2869031 L36.432196,52.2869031 L38.0533322,55.0174785 C38.1077971,55.0952857 38.1558546,55.1772122 38.1965889,55.2628 C38.2084888,55.2856846 38.2171849,55.2994152 38.2309156,55.3264189 L38.2309156,55.3264189 L40.50609,59.1829104 C40.6040356,59.348594 40.6054087,59.5536389 40.5097515,59.7206955 C40.4145521,59.8877521 40.2369686,59.9902761 40.044739,59.9902761 L40.044739,59.9902761 L8.9708276,59.9902761 C8.7813441,59.9902761 8.60604912,59.8900407 8.50993428,59.7271032 L8.50993428,59.7271032 L3.47855393,51.2017214 C-0.813657894,43.96382 -1.15463664,35.0461984 2.57187111,27.501645 L2.57187111,27.501645 L2.89362672,26.8521837 C5.59445239,21.3365679 6.35238616,15.0698836 5.04430958,9.06957454 L5.04430958,9.06957454 L3.19753253,0.650376771 C3.16320591,0.492016154 3.20210948,0.326332624 3.30325883,0.200010329 C3.40486595,0.0736880345 3.55819195,-7.10542736e-15 3.72067163,-7.10542736e-15 L3.72067163,-7.10542736e-15 Z M57.8575556,19.2829152 C59.0406829,19.2829152 60,20.2422323 60,21.4253597 L60,21.4253597 L60,57.8478302 C60,59.0314152 59.0406829,59.9902746 57.8575556,59.9902746 L57.8575556,59.9902746 L56.7861046,59.9902746 L56.7861046,19.2829152 Z M48.2163269,19.2829152 L48.2163269,59.9902746 L43.4714601,59.9902746 L40.111104,54.3043983 C40.0342122,54.1428339 39.9440473,53.9885925 39.8410672,53.8425896 L39.8410672,53.8425896 L38.2771423,51.1966867 C33.9808112,43.9537509 33.6457825,35.0278908 37.3869363,27.4833374 L37.3869363,27.4833374 L37.6940458,26.8480646 C38.8611541,24.4580101 39.6680606,21.9086798 40.0895926,19.2829152 L40.0895926,19.2829152 L48.2163269,19.2829152 Z M54.6436602,19.2829152 L54.6436602,59.9902746 L50.3587713,59.9902746 L50.3587713,19.2829152 L54.6436602,19.2829152 Z M28.9334117,2.14290211 L11.7933986,2.14290211 C11.201606,2.14290211 10.7224052,2.62210302 10.7224052,3.21389548 C10.7228629,4.85196613 9.49122051,6.22869607 7.86321908,6.40948344 C7.84262308,6.41177186 7.8243155,6.42779102 7.80509249,6.42779102 L7.80509249,6.42779102 L7.74742367,6.42779102 C7.69845087,6.44838702 7.6517666,6.47310219 7.60691297,6.50147899 C7.53963259,6.52390575 7.47464075,6.55274022 7.41285264,6.58752462 C7.3565568,6.62597053 7.30438026,6.66990872 7.25678056,6.71888141 C7.15196958,6.80355405 7.07141623,6.91431484 7.0242743,7.04063714 C6.99269376,7.10196758 6.96752081,7.16650177 6.94921323,7.23332449 C6.93594015,7.30106242 6.92999021,7.37017356 6.93090565,7.43882704 C6.92220952,7.49146124 6.91717491,7.54455333 6.91580193,7.5976452 C6.91900567,7.62007207 6.93548249,7.64158338 6.93548249,7.6594333 L6.93548249,7.6594333 L6.93548249,7.71344072 L7.13686586,8.61737746 C8.44540009,14.6767283 7.81333096,20.9942161 5.33036559,26.6746002 C5.12257451,27.0370903 4.94544866,27.4165148 4.80036112,27.8087547 L4.80036112,27.8087547 L4.49050538,28.430297 C1.08346494,35.3276773 1.39148993,43.4795846 5.30931182,50.1005204 L5.30931182,50.1005204 L7.45175621,53.7322864 C7.45679083,53.7409826 7.47006379,53.7460172 7.47006379,53.7547132 L7.47006379,53.7547132 L7.4764715,53.7707323 C7.48470986,53.7844631 7.49889826,53.7913283 7.50850971,53.8041438 C7.57258623,53.8938508 7.6503935,53.9730311 7.73872754,54.0384808 C7.7611543,54.0544998 7.78175029,54.0728074 7.80509249,54.0879111 C7.90624183,54.1529031 8.01791818,54.2005028 8.13508668,54.2279642 C8.15568268,54.2357448 8.17582102,54.2357448 8.19595936,54.2357448 C8.25545893,54.2490178 8.3163316,54.2567986 8.37720439,54.259087 C8.4220579,54.2563408 8.46691152,54.2503909 8.51130737,54.2412371 C8.53831108,54.2389487 8.56485701,54.2357448 8.59140306,54.2302526 C8.70674081,54.2096566 8.8175016,54.1689222 8.91910872,54.110338 C8.92688941,54.1071341 8.92872017,54.1039303 8.93650086,54.0952341 C8.9438239,54.0869958 8.95252002,54.0869958 8.95892774,54.0869958 C9.94662156,53.4384498 11.2107599,53.3844424 12.2501726,53.9464851 C13.2895855,54.5080701 13.9372161,55.5950826 13.935843,56.7768368 C13.935843,57.3681716 14.4155016,57.8478302 15.007294,57.8478302 L15.007294,57.8478302 L31.0758561,57.8478302 C31.6676486,57.8478302 32.1473072,57.3681716 32.1473072,56.7768368 C32.1477649,55.6413092 32.7487111,54.5909119 33.7272511,54.0151386 C33.7808009,53.9757772 33.8302314,53.931839 33.8750849,53.883324 C33.932296,53.8412166 33.9853881,53.7940745 34.0339032,53.741898 C34.0691452,53.6860598 34.0993528,53.6274756 34.1236103,53.5661452 C34.1606831,53.5057301 34.1913483,53.4421114 34.2160636,53.3752886 C34.2275058,53.3116698 34.2334558,53.2471356 34.2339134,53.1826014 C34.2462711,53.1121173 34.2508479,53.0402599 34.2467287,52.9684027 C34.2329981,52.8992916 34.2119443,52.8320112 34.1849406,52.7670194 C34.1716677,52.7020275 34.151987,52.6384086 34.1258987,52.577536 C31.1532055,47.1891577 29.9682475,40.9961615 30.7417428,34.8910416 C30.7527273,34.8471034 30.7609657,34.8031653 30.7673734,34.7583116 C30.9975912,32.9756111 31.3921195,31.2185413 31.9459238,29.5090711 C32.3839326,28.1639217 32.9166832,26.8521837 33.5409716,25.5830107 L33.5409716,25.5830107 L33.8485389,24.9477379 C36.1218825,20.3076819 36.759444,15.0355569 35.65687,9.98769968 L35.65687,9.98769968 L35.048143,7.1957939 C35.0179356,7.05574086 34.9602666,6.92301097 34.8778825,6.80584247 C34.6403417,6.47539072 34.2357442,6.30924942 33.8343505,6.37744512 L33.8343505,6.37744512 L33.7757663,6.37744512 C33.5922328,6.41314496 33.4054955,6.43007944 33.2187582,6.42779102 C31.4438384,6.42779102 30.0048627,4.98881532 30.0048627,3.21389548 C30.0048627,2.62210302 29.5252041,2.14290211 28.9334117,2.14290211 L28.9334117,2.14290211 Z M4.9074604,33.5120233 C6.65125735,37.6728782 11.9618283,40.7078171 18.2211896,40.7078171 C21.8762976,40.7796743 25.4540563,39.6459775 28.4011188,37.4824794 C28.2221623,42.7871004 29.4020857,48.0496139 31.829213,52.7702232 C30.9577722,53.5377684 30.3600297,54.5680275 30.1256927,55.7053858 L30.1256927,55.7053858 L15.9711881,55.7053858 C15.6640785,54.1565646 14.6850806,52.8242305 13.2987393,52.0685853 C11.9123979,51.3129399 10.2619696,51.2113328 8.79370175,51.7921407 L8.79370175,51.7921407 L7.15700419,49.0112196 C4.39530597,44.342787 3.5870263,38.7731637 4.9074604,33.5120233 Z M43.0384858,41.8300717 C41.2338163,41.2799289 39.2817706,41.9747016 38.2304579,43.540915 C37.1791452,45.107586 37.2761754,47.1772578 38.4693719,48.6386603 C39.6621106,50.1000628 41.670452,50.6090135 43.4156219,49.8927295 C44.1676057,50.7339627 44.120006,52.018697 43.3085226,52.8022614 C42.8897367,53.2205897 42.8892791,53.8993432 43.3076073,54.3181289 C43.7259354,54.7369148 44.404689,54.7373725 44.8234748,54.3190444 C46.1677088,52.9716066 46.4647492,50.900104 45.5539471,49.228622 C45.4248788,49.0093887 45.2761297,48.8025132 45.1095307,48.6107413 C45.7296999,47.8555536 46.0702209,46.9095095 46.0734247,45.9323425 C46.0752555,44.0457464 44.8426977,42.3802145 43.0384858,41.8300717 Z M19.2921829,42.8502615 C16.3355089,42.853923 13.9395045,45.2499274 13.935843,48.2066014 C13.935843,51.1646485 16.3341358,53.5629414 19.2921829,53.5629414 C22.25023,53.5629414 24.6485229,51.1646485 24.6485229,48.2066014 C24.6485229,45.2485544 22.25023,42.8502615 19.2921829,42.8502615 Z M18.0623713,45.2375698 C19.2633485,44.7400613 20.6455707,45.0151328 21.5646111,45.9341732 C22.4836516,46.8532137 22.758723,48.2354359 22.2612146,49.4364131 C21.7637061,50.6373903 20.592021,51.420497 19.2921829,51.420497 C17.5172631,51.420497 16.0782874,49.9815213 16.0782874,48.2066014 C16.0782874,46.9067633 16.8613941,45.7350783 18.0623713,45.2375698 Z M20.363634,47.1356081 L18.2211896,47.1356081 C17.6293971,47.1356081 17.1497385,47.614809 17.1497385,48.2066014 C17.1497385,48.7983939 17.6293971,49.2780525 18.2211896,49.2780525 L18.2211896,49.2780525 L20.363634,49.2780525 C20.9549688,49.2780525 21.4346273,48.7983939 21.4346273,48.2066014 C21.4346273,47.614809 20.9549688,47.1356081 20.363634,47.1356081 L20.363634,47.1356081 Z M41.7885359,43.7898981 C42.9716632,43.7898981 43.9309803,44.7492152 43.9309803,45.9323425 C43.9309803,47.1154697 42.9716632,48.0747869 41.7885359,48.0747869 C40.6054087,48.0747869 39.6460915,47.1154697 39.6460915,45.9323425 C39.6460915,44.7492152 40.6054087,43.7898981 41.7885359,43.7898981 Z M18.2211896,22.4963529 C23.9340695,22.4963529 28.8510276,25.3491315 29.8130908,29.171754 C29.3027671,30.8052477 28.9265463,32.4781027 28.6880901,34.1733845 C26.6655603,36.8417141 22.5948702,38.5653727 18.2211896,38.5653727 C11.7238298,38.5653727 6.43705868,34.9615258 6.43705868,30.5310917 C6.4393471,29.8866649 6.55376953,29.248188 6.77574889,28.6435803 C6.93639793,28.3112978 7.09613152,27.9716921 7.25037285,27.6279674 C9.01980041,24.5577863 13.4236885,22.4963529 18.2211896,22.4963529 Z M43.9309803,33.2090328 C43.3396455,33.2090328 42.859987,33.6886914 42.859987,34.2804838 L42.859987,34.2804838 L42.859987,36.4229283 C42.859987,37.014263 43.3396455,37.4939216 43.9309803,37.4939216 C44.5227728,37.4939216 45.0024313,37.014263 45.0024313,36.4229283 L45.0024313,36.4229283 L45.0024313,34.2804838 C45.0024313,33.6886914 44.5227728,33.2090328 43.9309803,33.2090328 Z M20.8991307,24.6392551 C19.7228687,24.6969239 18.6619446,25.3642352 18.0999018,26.3990711 C17.6376355,27.1716509 17.3415103,28.0316495 17.2312072,28.9250593 L17.2312072,28.9250593 L14.0516384,28.9250593 C14.1367687,28.4339585 14.3097753,27.9625383 14.5615045,27.5323102 C14.8750218,27.0297672 14.7212381,26.3679482 14.2182374,26.0548886 C13.7152367,25.7413713 13.0538754,25.895155 12.7403581,26.3981558 C12.2780917,27.1702779 11.9819667,28.0307341 11.8716634,28.924144 L11.8716634,28.924144 L10.7224052,28.924144 C10.1306128,28.924144 9.65095422,29.4038026 9.65095422,29.9951373 C9.65095422,30.5869298 10.1306128,31.0665884 10.7224052,31.0665884 L10.7224052,31.0665884 L11.8716634,31.0665884 C11.9819667,31.9599982 12.2780917,32.8204545 12.7403581,33.5925766 C13.3037739,34.6278702 14.3656135,35.294266 15.5427908,35.3514772 C16.7195103,35.2947237 17.7818077,34.6278702 18.344308,33.5925766 C18.8074898,32.8204545 19.1036149,31.9599982 19.213918,31.0665884 L19.213918,31.0665884 L22.3989791,31.0665884 C22.312018,31.5576892 22.1376384,32.029567 21.8845361,32.4593374 C21.6616413,32.7838393 21.6350954,33.2049136 21.8149673,33.555046 C21.9948393,33.9056361 22.3527525,34.1285309 22.7463653,34.1367694 C23.140436,34.1445501 23.5065876,33.935386 23.7006479,33.5925766 C24.1633719,32.8204545 24.4599547,31.9599982 24.5702579,31.0665884 L24.5702579,31.0665884 L25.7199739,31.0665884 C26.3113087,31.0665884 26.7909673,30.5869298 26.7909673,29.9951373 C26.7909673,29.4038026 26.3113087,28.924144 25.7199739,28.924144 L25.7199739,28.924144 L24.5702579,28.924144 C24.4599547,28.0307341 24.1633719,27.1702779 23.7006479,26.3981558 C23.1381475,25.3624045 22.0763079,24.6955509 20.8991307,24.6392551 Z M17.0426392,31.0665884 C16.9556782,31.5581468 16.7812984,32.029567 16.5272809,32.4593374 C15.9304538,33.4127046 15.1560431,33.4127046 14.5624199,32.4593374 C14.3111484,32.0291094 14.1390571,31.5572315 14.0539268,31.0665884 L14.0539268,31.0665884 Z M43.9309803,21.4253597 C43.3396455,21.4253597 42.859987,21.9050182 42.859987,22.4963529 L42.859987,22.4963529 L42.859987,29.9951373 C42.859987,30.5869298 43.3396455,31.0665884 43.9309803,31.0665884 C44.5227728,31.0665884 45.0024313,30.5869298 45.0024313,29.9951373 L45.0024313,29.9951373 L45.0024313,22.4963529 C45.0024313,21.9050182 44.5227728,21.4253597 43.9309803,21.4253597 Z M19.9137252,27.5313949 C20.512383,26.5771124 21.2867936,26.5771124 21.8836207,27.5313949 C22.1371807,27.9611653 22.312018,28.4325854 22.3989791,28.924144 L22.3989791,28.924144 L19.4047745,28.924144 C19.4903625,28.4335009 19.6624537,27.961623 19.9137252,27.5313949 Z M27.9695177,4.28534651 C28.4780106,6.75183505 30.6346434,8.53224716 33.1533086,8.5638277 L33.1533086,8.5638277 L33.5647715,10.4490507 C34.5634498,15.0259454 33.9844727,19.8060543 31.9221239,24.0122205 L31.9221239,24.0122205 L31.6150143,24.6474936 C31.3536736,25.178871 31.1188789,25.7253522 30.8863727,26.2736642 C28.6880901,22.7256554 23.8320049,20.3539085 18.2211896,20.3539085 C14.9244523,20.3072243 11.6844685,21.2134494 8.89027426,22.963654 C10.1617356,18.1624913 10.2862271,13.1297379 9.25459508,8.2713641 C11.0464494,7.65806032 12.3792411,6.14127735 12.7577502,4.28534651 L12.7577502,4.28534651 Z M21.4346273,6.42779102 C18.4779533,6.43145253 16.0819489,8.82745684 16.0782874,11.7841308 C16.0782874,14.7421779 18.4765802,17.1404708 21.4346273,17.1404708 C24.3931321,17.1404708 26.7909673,14.7421779 26.7909673,11.7841308 C26.7909673,8.82562608 24.3931321,6.42779102 21.4346273,6.42779102 Z M21.4346273,8.57023541 C23.2095472,8.57023541 24.6485229,10.0092111 24.6485229,11.7841308 C24.6485229,13.5590507 23.2095472,14.9975686 21.4346273,14.9975686 C19.6597075,14.9975686 18.2211896,13.5590507 18.2211896,11.7841308 C18.2211896,10.0092111 19.6597075,8.57023541 21.4346273,8.57023541 Z M22.5060784,10.7126798 L20.363634,10.7126798 C19.7718415,10.7126798 19.2921829,11.1923384 19.2921829,11.7841308 C19.2921829,12.3754656 19.7718415,12.8551242 20.363634,12.8551242 L20.363634,12.8551242 L22.5060784,12.8551242 C23.0974132,12.8551242 23.5770717,12.3754656 23.5770717,11.7841308 C23.5770717,11.1923384 23.0974132,10.7126798 22.5060784,10.7126798 L22.5060784,10.7126798 Z" id="Combined-Shape"></path>
                </g>
            </g>
        </g>
    </g>
</svg>