<svg width="406" height="111" viewBox="0 0 406 111" fill="none" xmlns="http://www.w3.org/2000/svg">
<path d="M187.989 56.764H395.989L386.521 110.764H178.521L187.989 56.764Z" fill="url(#paint0_linear)"/>
<path d="M149.521 56.764H179.521L170.053 110.764H140.053L149.521 56.764Z" fill="url(#paint1_linear)"/>
<path d="M101.881 56.764H140.881L131.413 110.764H92.4127L101.881 56.764Z" fill="url(#paint2_linear)"/>
<path d="M55.9008 56.764H93.9008L84.4327 110.764H46.4327L55.9008 56.764Z" fill="url(#paint3_linear)"/>
<path d="M10.2158 56.764H48.2158L38.7477 110.764H0.747681L10.2158 56.764Z" fill="url(#paint4_linear)"/>
<path d="M216.658 69.4471C210.736 69.4471 206.368 73.2271 206.368 78.2671C206.368 82.0471 207.838 83.9371 212.836 86.3731C215.482 87.7171 216.112 88.3051 216.112 89.5651C216.112 91.2871 214.6 92.4211 212.374 92.4211C210.442 92.4211 208.93 91.7911 206.452 90.1111L203.26 95.4871C206.998 97.8391 209.35 98.5531 212.71 98.5531C218.968 98.5531 223.42 94.5631 223.42 88.9771C223.42 85.2391 221.824 83.3911 217.204 81.1231C214.348 79.8211 213.634 79.1071 213.634 77.7631C213.634 76.2511 214.81 75.3271 216.784 75.3271C218.296 75.3271 219.808 75.9151 221.698 77.3851L224.806 72.0091C222.076 70.203 219.514 69.4471 216.658 69.4471Z" fill="black"/>
<path d="M248.171 76.1671L248.927 69.993H229.901L229.145 76.1671H235.109L232.421 98.0071H239.477L242.207 76.1671H248.171Z" fill="black"/>
<path d="M271.348 84.9031C272.86 83.3071 273.616 81.2491 273.616 78.6871C273.616 76.1671 272.818 73.8991 271.474 72.4291C269.836 70.7491 267.568 69.993 263.704 69.993H254.59L251.146 98.0071H258.244L259.588 86.8771L265.972 98.0071H274.204L267.652 87.1291C269.542 86.4571 270.382 85.9951 271.348 84.9031ZM262.318 75.621C265.342 75.621 266.308 76.4191 266.308 78.8971C266.308 81.5851 264.754 82.8031 261.352 82.8031H260.092L260.974 75.621H262.318Z" fill="black"/>
<path d="M283.155 69.993L279.711 98.0071H295.377L296.133 91.8331H287.565L288.153 86.9611H296.133L296.889 80.8291H288.909L289.497 76.1671H297.729L298.485 69.993H283.155Z" fill="black"/>
<path d="M320.174 93.3031L321.35 98.0071H328.784L322.022 69.993H314.042L300.14 98.0071H308.036L310.178 93.3031H320.174ZM315.596 81.5011C316.058 80.5351 316.394 79.6531 316.856 78.1831C316.898 78.6451 316.982 78.9811 317.024 79.1911C317.15 80.0311 317.192 80.2831 317.654 82.4251L318.83 87.7591H312.782L315.596 81.5011Z" fill="black"/>
<path d="M360.843 69.993L354.249 82.9711C353.745 83.9371 353.115 85.4911 352.653 86.7931C352.317 84.1051 351.939 81.7951 351.393 79.4431L349.293 69.993H342.279L333.417 98.0071H340.725L344.337 85.8691C344.799 84.1891 345.135 82.8871 345.807 79.4431C346.143 83.1391 346.437 84.4831 346.983 87.1711L349.377 98.0071H353.115L360.003 84.5251C360.801 82.9711 361.305 81.7111 361.977 79.9051C361.683 81.9631 361.641 83.0131 361.641 84.5671V85.4491L361.977 98.0071H369.075L368.193 69.993H360.843Z" fill="black"/>
<path d="M29.0934 47.66C22.992 47.66 18.768 46.3373 16.4214 43.692C14.8 41.8147 13.9894 39.1907 13.9894 35.82C13.9894 34.3693 14.1387 32.812 14.4374 31.148L15.3971 25.764H26.927L26.1494 30.252C25.936 31.3613 25.8294 32.4493 25.8294 33.516C25.8294 36.332 27.5147 37.74 30.8854 37.74C34.9387 37.74 37.3707 35.4573 38.1814 30.892H49.7014L49.3814 32.748C47.6747 42.6893 40.912 47.66 29.0934 47.66Z" fill="white"/>
<path d="M27.4468 22.764H15.9319L17.0614 16.428C18.9814 5.63333 25.9147 0.235992 37.8614 0.235992C42.8107 0.235992 46.5654 1.30266 49.1254 3.43599C51.6854 5.52666 52.9654 8.40666 52.9654 12.076C52.9654 13.7827 52.7094 15.4893 52.1974 17.196C51.728 18.86 51.2587 20.0973 50.7894 20.908L50.0854 22.188H38.7574C40.1654 20.5667 40.8694 18.2627 40.8694 15.276C40.8694 13.6973 40.464 12.46 39.6534 11.564C38.8427 10.6253 37.648 10.156 36.0694 10.156C31.76 10.156 29.2 12.5453 28.3894 17.324L27.4468 22.764Z" fill="white"/>
<path d="M61.883 25.764L58.1789 46.764H69.7629L72.6429 30.124H85.1229L82.1789 46.764H93.7629L97.4379 25.764H61.883Z" fill="white"/>
<path d="M97.9629 22.764H62.4122L66.3069 0.683994H77.8269L74.3709 20.14H86.8509L90.3069 0.683994H101.827L97.9629 22.764Z" fill="white"/>
<path d="M111.26 25.764L103.764 46.764H115.988L119.124 36.716H129.812L129.428 46.764H141.588L141.471 25.764H130.235L130.132 28.14H121.748L122.487 25.764H111.26Z" fill="white"/>
<path d="M123.42 22.764H112.331L120.212 0.683994H141.332L141.455 22.764H130.365L130.836 11.884H126.804L123.42 22.764Z" fill="white"/>
<path d="M155.188 25.764L151.484 46.764H180.668L182.46 36.78H164.796L166.73 25.764H155.188Z" fill="white"/>
<path d="M167.256 22.764H155.717L159.612 0.683994H171.132L167.256 22.764Z" fill="white"/>
<path d="M193.341 25.764L189.636 46.764H218.82L220.612 36.78H202.948L204.882 25.764H193.341Z" fill="white"/>
<path d="M205.409 22.764H193.87L197.764 0.683994H209.284L205.409 22.764Z" fill="white"/>
<path d="M231.493 25.764L227.789 46.764H259.917L261.709 36.78H241.101L242.381 29.292H259.405L260.038 25.764H231.493Z" fill="white"/>
<path d="M260.577 22.764H232.022L235.917 0.683994H268.045L266.253 10.668H245.645L244.173 19.308H261.197L260.577 22.764Z" fill="white"/>
<path d="M274.833 25.764L271.129 46.764H282.713L286.162 25.764H274.833Z" fill="white"/>
<path d="M286.654 22.764H275.362L279.257 0.683994H291.161L297.401 22.764H287.826L287.065 20.264L286.654 22.764Z" fill="white"/>
<path d="M288.739 25.764L295.129 46.764H306.713L310.388 25.764H299.541L299.097 28.764L298.249 25.764H288.739Z" fill="white"/>
<path d="M299.986 22.764H310.913L314.777 0.683994H303.257L299.986 22.764Z" fill="white"/>
<path d="M322.032 25.764L321.258 30.188C320.917 32.0653 320.746 33.7933 320.746 35.372C320.746 38.7853 321.535 41.4733 323.114 43.436C325.418 46.252 329.599 47.66 335.658 47.66C347.434 47.66 354.218 42.6893 356.01 32.748L356.33 30.892L357.284 25.764H340.326L339.114 32.492H344.362C343.381 35.9907 341.141 37.74 337.642 37.74C334.186 37.74 332.458 36.268 332.458 33.324C332.458 32.2147 332.565 31.084 332.778 29.932L333.516 25.764H322.032Z" fill="white"/>
<path d="M334.047 22.764H322.557L323.498 17.388C325.503 5.95333 332.501 0.235992 344.49 0.235992C349.439 0.235992 353.194 1.30266 355.754 3.43599C358.314 5.52666 359.594 8.40666 359.594 12.076C359.594 13.5693 359.381 15.084 358.954 16.62C358.57 18.156 358.186 19.308 357.802 20.076L357.162 21.228H345.834C346.943 19.692 347.498 17.9213 347.498 15.916C347.498 12.076 345.898 10.156 342.698 10.156C338.389 10.156 335.807 12.652 334.954 17.644L334.047 22.764Z" fill="white"/>
<path d="M368.701 25.764L364.996 46.764H397.124L398.916 36.78H378.308L379.588 29.292H396.612L397.246 25.764H368.701Z" fill="white"/>
<path d="M397.784 22.764H369.23L373.124 0.683994H405.252L403.46 10.668H382.852L381.38 19.308H398.404L397.784 22.764Z" fill="white"/>
<defs>
<linearGradient id="paint0_linear" x1="0.747681" y1="56.764" x2="395.989" y2="56.764" gradientUnits="userSpaceOnUse">
<stop stop-color="#00C500"/>
<stop offset="1" stop-color="#A9F976"/>
</linearGradient>
<linearGradient id="paint1_linear" x1="0.747681" y1="56.764" x2="395.989" y2="56.764" gradientUnits="userSpaceOnUse">
<stop stop-color="#00C500"/>
<stop offset="1" stop-color="#A9F976"/>
</linearGradient>
<linearGradient id="paint2_linear" x1="0.747681" y1="56.764" x2="395.989" y2="56.764" gradientUnits="userSpaceOnUse">
<stop stop-color="#00C500"/>
<stop offset="1" stop-color="#A9F976"/>
</linearGradient>
<linearGradient id="paint3_linear" x1="0.747681" y1="56.764" x2="395.989" y2="56.764" gradientUnits="userSpaceOnUse">
<stop stop-color="#00C500"/>
<stop offset="1" stop-color="#A9F976"/>
</linearGradient>
<linearGradient id="paint4_linear" x1="0.747681" y1="56.764" x2="395.989" y2="56.764" gradientUnits="userSpaceOnUse">
<stop stop-color="#00C500"/>
<stop offset="1" stop-color="#A9F976"/>
</linearGradient>
</defs>
</svg>
