<?xml version="1.0" encoding="UTF-8"?>
<svg width="60px" height="53px" viewBox="0 0 60 53" version="1.1" xmlns="http://www.w3.org/2000/svg" xmlns:xlink="http://www.w3.org/1999/xlink">
    <!-- Generator: Sketch 61.2 (89653) - https://sketch.com -->
    <title>Combined Shape</title>
    <desc>Created with Sketch.</desc>
    <g id="coming-soon" stroke="none" stroke-width="1" fill="none" fill-rule="evenodd">
        <g id="screen2" transform="translate(-961.000000, -666.000000)" fill="#61ED58" fill-rule="nonzero">
            <g id="icons" transform="translate(262.000000, 666.000000)">
                <g id="game-item-copy" transform="translate(699.000000, 0.000000)">
                    <path d="M24.9147034,16.9821166 C26.2481689,15.9008789 28.2421875,16.8772888 28.2421875,18.5939026 L28.2421875,18.5939026 L28.2421875,25.3427123 C28.2421875,25.9442139 27.9794311,26.5159607 27.522583,26.9073486 L27.522583,26.9073486 L18.5778809,34.5744323 L18.5778809,50.7115173 C18.5778809,51.6815186 17.7914428,52.4693298 16.8200684,52.4693298 L16.8200684,52.4693298 L1.7578125,52.4693298 C0.786895781,52.4693298 0,51.6819763 0,50.7115173 L0,50.7115173 L0,33.763733 C0,28.6271667 4.15786746,24.4766236 9.28710938,24.4766236 L9.28710938,24.4766236 L14.7303772,24.4766236 C15.658722,24.4766236 16.5586853,24.1438294 17.2627259,23.5404968 L17.2627259,23.5404968 L24.8625183,17.0256042 C24.8789978,17.0118714 24.8963929,16.9972229 24.9147034,16.9821166 Z M31.7578125,18.5939026 C31.7578125,16.8772888 33.7518311,15.9008789 35.0852966,16.9821166 C35.1036071,16.9972229 35.1210022,17.0118714 35.1374817,17.0256042 L35.1374817,17.0256042 L42.7372741,23.5400391 C43.4413147,24.1438294 44.341278,24.4766236 45.2696228,24.4766236 L45.2696228,24.4766236 L50.7128906,24.4766236 C55.8421325,24.4766236 60,28.6271667 60,33.763733 L60,33.763733 L60,50.7110596 C60,51.6819763 59.2131042,52.4688721 58.2421875,52.4688721 L58.2421875,52.4688721 L43.1799316,52.4688721 C42.2085572,52.4688721 41.4221191,51.6815186 41.4221191,50.7110596 L41.4221191,50.7110596 L41.4221191,34.5744323 L32.477417,26.9073486 C32.0205689,26.5159607 31.7578125,25.9442139 31.7578125,25.3427123 L31.7578125,25.3427123 Z M9.28894043,9.66384891 C13.3726501,9.66384891 16.6950989,12.9862976 16.6950989,17.0700073 C16.6950989,21.1541748 13.3726501,24.4766236 9.28894043,24.4766236 C5.20523074,24.4766236 1.88278195,21.1541748 1.88278195,17.0700073 C1.88278195,12.9862976 5.20523074,9.66384891 9.28894043,9.66384891 Z M50.7110596,9.66384891 C54.7947693,9.66384891 58.117218,12.9862976 58.117218,17.0700073 C58.117218,21.1541748 54.7947693,24.4766236 50.7110596,24.4766236 C46.6273499,24.4766236 43.3049011,21.1541748 43.3049011,17.0700073 C43.3049011,12.9862976 46.6273499,9.66384891 50.7110596,9.66384891 Z M17.460022,6.16333008 C18.1466674,5.47668457 19.2594909,5.47668457 19.9456787,6.16333008 L19.9456787,6.16333008 L23.7117005,9.92889398 C24.3978881,10.6155396 24.3978881,11.728363 23.7117005,12.4150085 C23.3683777,12.7583313 22.9183959,12.9299927 22.4688721,12.9299927 C22.0188904,12.9299927 21.5689088,12.7578736 21.2260437,12.4150085 L21.2260437,12.4150085 L17.460022,8.64944461 C16.7733764,7.9627991 16.7733764,6.84997559 17.460022,6.16333008 Z M40.0538636,6.16333008 C40.7405091,5.47668457 41.8533326,5.47668457 42.539978,6.16333008 C43.2261657,6.84951785 43.2261657,7.9627991 42.539978,8.64898688 L42.539978,8.64898688 L38.7739563,12.4145508 C38.4310913,12.7578736 37.9811096,12.9295349 37.5311279,12.9295349 C37.0816041,12.9295349 36.6316223,12.7578736 36.2882995,12.4145508 C35.601654,11.728363 35.601654,10.6155396 36.2882995,9.92889398 L36.2882995,9.92889398 Z M30,0 C30.9709167,0 31.7578125,0.786895781 31.7578125,1.7578125 L31.7578125,1.7578125 L31.7578125,9.28894043 C31.7578125,10.2598571 30.9709167,11.0467529 30,11.0467529 C29.0290833,11.0467529 28.2421875,10.2598571 28.2421875,9.28894043 L28.2421875,9.28894043 L28.2421875,1.7578125 C28.2421875,0.786895781 29.0290833,0 30,0 Z" id="Combined-Shape"></path>
                </g>
            </g>
        </g>
    </g>
</svg>